# Blender v2.75 (sub 0) OBJ File: 'skybox.blend'
# www.blender.org
mtllib test.mtl
o Cube
v 4.999997 -5.000000 4.999998
v -4.999998 -5.000000 4.999998
v -4.999997 -5.000000 -4.999998
v 5.000000 -5.000000 -4.999996
v 4.999995 5.000000 5.000000
v -5.000000 5.000000 4.999994
v -4.999996 5.000000 -5.000000
v 4.999998 5.000000 -4.999997
vt 0.500000 0.335481
vt 0.500000 0.664519
vt 0.253221 0.664519
vt 0.744004 0.335481
vt 0.744004 0.664519
vt 0.996609 0.664519
vt 0.253221 0.006442
vt 0.500000 0.006442
vt 0.746779 0.335481
vt 0.746779 0.664519
vt 0.497093 0.999291
vt 0.250874 0.999291
vt 0.250874 0.670999
vt 0.253221 0.335481
vt 0.006442 0.664519
vt 0.996609 0.335481
vt 0.497093 0.670999
vt 0.006442 0.335481
vn 0.000000 -1.000000 0.000000
vn -0.000000 0.000000 1.000000
vn -1.000000 -0.000000 -0.000000
vn 0.000000 -0.000000 -1.000000
vn 1.000000 0.000000 0.000000
usemtl Material
s off
f 2/1/1 3/2/1 4/3/1
f 6/4/1 7/5/1 8/6/1
f 5/7/2 6/8/2 2/1/2
f 6/9/3 7/10/3 3/2/3
f 7/11/4 8/12/4 4/13/4
f 1/14/5 4/3/5 8/15/5
f 1/14/1 2/1/1 4/3/1
f 5/16/1 6/4/1 8/6/1
f 1/14/2 5/7/2 2/1/2
f 2/1/3 6/9/3 3/2/3
f 3/17/4 7/11/4 4/13/4
f 5/18/5 1/14/5 8/15/5
